<?xml version="1.0" encoding="UTF-8" standalone="no"?>
<!-- Created with Inkscape (http://www.inkscape.org/) -->

<svg
   xmlns:dc="http://purl.org/dc/elements/1.1/"
   xmlns:cc="http://creativecommons.org/ns#"
   xmlns:rdf="http://www.w3.org/1999/02/22-rdf-syntax-ns#"
   xmlns:svg="http://www.w3.org/2000/svg"
   xmlns="http://www.w3.org/2000/svg"
   xmlns:inkscape="http://www.inkscape.org/namespaces/inkscape"
   version="1.1"
   width="650.75"
   height="151.375"
   id="svg2"
   xml:space="preserve"><metadata
     id="metadata8"><rdf:RDF><cc:Work
         rdf:about=""><dc:format>image/svg+xml</dc:format><dc:type
           rdf:resource="http://purl.org/dc/dcmitype/StillImage" /></cc:Work></rdf:RDF></metadata><defs
     id="defs6"><clipPath
       id="clipPath18"><path
         d="m 781,0 c 270.06,0 489.05,20.3984 489.05,45.5391 0,25.1523 -218.99,45.539 -489.05,45.539 -270.062,0 -489.066,-20.3867 -489.066,-45.539 C 291.934,20.3984 510.938,0 781,0"
         inkscape:connector-curvature="0"
         id="path20" /></clipPath><clipPath
       id="clipPath24"><path
         d="m 292.184,0.0195312 978.116,0 0,91.0820688 -978.116,0"
         inkscape:connector-curvature="0"
         id="path26" /></clipPath><linearGradient
       x1="0"
       y1="0"
       x2="1"
       y2="0"
       id="linearGradient28"
       gradientUnits="userSpaceOnUse"
       gradientTransform="matrix(97.8123,0,0,9.10885,29.2188,0.00199432)"
       spreadMethod="pad"><stop
         id="stop30"
         style="stop-color:#dee0e4;stop-opacity:1"
         offset="0" /><stop
         id="stop32"
         style="stop-color:#ffffff;stop-opacity:1"
         offset="1" /></linearGradient><clipPath
       id="clipPath40"><path
         d="m 781,5.10938 c 259.16,0 469.33,18.10152 469.33,40.42972 0,22.3515 -210.17,40.4492 -469.33,40.4492 -259.168,0 -469.34,-18.0977 -469.34,-40.4492 C 311.66,23.2109 521.832,5.10938 781,5.10938"
         inkscape:connector-curvature="0"
         id="path42" /></clipPath><clipPath
       id="clipPath46"><path
         d="m 311.855,5.12109 938.675,0 0,80.87891 -938.675,0"
         inkscape:connector-curvature="0"
         id="path48" /></clipPath><linearGradient
       x1="0"
       y1="0"
       x2="1"
       y2="0"
       id="linearGradient50"
       gradientUnits="userSpaceOnUse"
       gradientTransform="matrix(93.8667,0,0,8.08724,31.186,0.511989)"
       spreadMethod="pad"><stop
         id="stop52"
         style="stop-color:#c3c5cb;stop-opacity:1"
         offset="0" /><stop
         id="stop54"
         style="stop-color:#ffffff;stop-opacity:1"
         offset="1" /></linearGradient><clipPath
       id="clipPath62"><path
         d="m 781,9.92969 c 248.27,0 449.6,15.94141 449.6,35.60941 0,19.6718 -201.33,35.6093 -449.6,35.6093 -248.27,0 -449.594,-15.9375 -449.594,-35.6093 C 331.406,25.8711 532.73,9.92969 781,9.92969"
         inkscape:connector-curvature="0"
         id="path64" /></clipPath><clipPath
       id="clipPath68"><path
         d="m 331.355,9.92188 899.195,0 0,71.21872 -899.195,0"
         inkscape:connector-curvature="0"
         id="path70" /></clipPath><linearGradient
       x1="0"
       y1="0"
       x2="1"
       y2="0"
       id="linearGradient72"
       gradientUnits="userSpaceOnUse"
       gradientTransform="matrix(89.9206,0,0,7.12205,33.1343,0.992992)"
       spreadMethod="pad"><stop
         id="stop74"
         style="stop-color:#acafb7;stop-opacity:1"
         offset="0" /><stop
         id="stop76"
         style="stop-color:#ffffff;stop-opacity:1"
         offset="1" /></linearGradient><clipPath
       id="clipPath84"><path
         d="m 781,14.5 c 237.37,0 429.88,13.8906 429.88,31.0391 0,17.1718 -192.51,31.0625 -429.88,31.0625 -237.379,0 -429.871,-13.8907 -429.871,-31.0625 C 351.129,28.3906 543.621,14.5 781,14.5"
         inkscape:connector-curvature="0"
         id="path86" /></clipPath><clipPath
       id="clipPath90"><path
         d="m 351.254,14.4805 859.746,0 0,62.0976 -859.746,0"
         inkscape:connector-curvature="0"
         id="path92" /></clipPath><linearGradient
       x1="0"
       y1="0"
       x2="1"
       y2="0"
       id="linearGradient94"
       gradientUnits="userSpaceOnUse"
       gradientTransform="matrix(85.9748,0,0,6.21128,35.125,1.44699)"
       spreadMethod="pad"><stop
         id="stop96"
         style="stop-color:#989da3;stop-opacity:1"
         offset="0" /><stop
         id="stop98"
         style="stop-color:#ffffff;stop-opacity:1"
         offset="1" /></linearGradient><clipPath
       id="clipPath106"><path
         d="m 781,18.7695 c 226.49,0 410.14,11.9922 410.14,26.7696 0,14.789 -183.65,26.7812 -410.14,26.7812 -226.484,0 -410.148,-11.9922 -410.148,-26.7812 0,-14.7774 183.664,-26.7696 410.148,-26.7696"
         inkscape:connector-curvature="0"
         id="path108" /></clipPath><clipPath
       id="clipPath112"><path
         d="m 370.914,18.75 820.286,0 0,53.5508 -820.286,0"
         inkscape:connector-curvature="0"
         id="path114" /></clipPath><linearGradient
       x1="0"
       y1="0"
       x2="1"
       y2="0"
       id="linearGradient116"
       gradientUnits="userSpaceOnUse"
       gradientTransform="matrix(82.0293,0,0,5.35493,37.0918,1.875)"
       spreadMethod="pad"><stop
         id="stop118"
         style="stop-color:#888e93;stop-opacity:1"
         offset="0" /><stop
         id="stop120"
         style="stop-color:#ffffff;stop-opacity:1"
         offset="1" /></linearGradient><clipPath
       id="clipPath128"><path
         d="m 0,0 5205.97,0 0,1211 L 0,1211 0,0 z"
         inkscape:connector-curvature="0"
         id="path130" /></clipPath></defs><g
     transform="matrix(1.25,0,0,-1.25,0,151.375)"
     id="g10"><g
       transform="scale(0.1,0.1)"
       id="g12"><g
         id="g14"><g
           clip-path="url(#clipPath18)"
           id="g16"><g
             clip-path="url(#clipPath24)"
             id="g22"><path
               d="m 679,0 0,1 -42,0 0,1 -30,0 0,1 -26,0 0,1 -22,0 0,1 -20,0 0,1 -18,0 0,1 -17,0 0,1 -14,0 0,1 -15,0 0,1 -13,0 0,1 -11,0 0,1 -12,0 0,1 -11,0 0,1 -9,0 0,1 -10,0 0,1 -9,0 0,1 -8,0 0,1 -8,0 0,1 -8,0 0,1 -7,0 0,1 -7,0 0,1 -6,0 0,1 -6,0 0,1 -6,0 0,1 -5,0 0,1 -5,0 0,1 -5,0 0,1 -4,0 0,1 -4,0 0,1 -4,0 0,1 -4,0 0,1 -2,0 0,1 -3,0 0,1 -3,0 0,1 -3,0 0,1 -2,0 0,1 -1,0 0,1 -2,0 0,1 -2,0 0,1 -1,0 0,1 -1,0 0,2 -1,0 0,5 1,0 0,2 1,0 0,1 1,0 0,1 2,0 0,1 2,0 0,1 1,0 0,1 2,0 0,1 3,0 0,1 3,0 0,1 2,0 0,1 3,0 0,1 4,0 0,1 4,0 0,1 4,0 0,1 4,0 0,1 5,0 0,1 5,0 0,1 5,0 0,1 5,0 0,1 6,0 0,1 7,0 0,1 6,0 0,1 7,0 0,1 8,0 0,1 8,0 0,1 8,0 0,1 9,0 0,1 10,0 0,1 9,0 0,1 11,0 0,1 12,0 0,1 11,0 0,1 13,0 0,1 14,0 0,1 15,0 0,1 16,0 0,1 18,0 0,1 20,0 0,1 22,0 0,1 26,0 0,1 29,0 0,1 42,0 0,1 88,0 0,1 34,0 0,-1 88,0 0,-1 42,0 0,-1 29,0 0,-1 26,0 0,-1 22,0 0,-1 20,0 0,-1 18,0 0,-1 16,0 0,-1 15,0 0,-1 14,0 0,-1 13,0 0,-1 11,0 0,-1 12,0 0,-1 11,0 0,-1 9,0 0,-1 10,0 0,-1 9,0 0,-1 8,0 0,-1 8,0 0,-1 8,0 0,-1 7,0 0,-1 6,0 0,-1 7,0 0,-1 6,0 0,-1 5,0 0,-1 5,0 0,-1 5,0 0,-1 5,0 0,-1 4,0 0,-1 4,0 0,-1 4,0 0,-1 4,0 0,-1 3,0 0,-1 2,0 0,-1 3,0 0,-1 3,0 0,-1 2,0 0,-1 1,0 0,-1 2,0 0,-1 2,0 0,-1 1,0 0,-1 1,0 0,-2 1,0 0,-2 1,0 0,-1 -1,0 0,-2 -1,0 0,-2 -1,0 0,-1 -1,0 0,-1 -2,0 0,-1 -2,0 0,-1 -1,0 0,-1 -2,0 0,-1 -3,0 0,-1 -3,0 0,-1 -3,0 0,-1 -2,0 0,-1 -4,0 0,-1 -4,0 0,-1 -4,0 0,-1 -4,0 0,-1 -5,0 0,-1 -5,0 0,-1 -5,0 0,-1 -6,0 0,-1 -6,0 0,-1 -6,0 0,-1 -7,0 0,-1 -7,0 0,-1 -8,0 0,-1 -8,0 0,-1 -8,0 0,-1 -9,0 0,-1 -10,0 0,-1 -9,0 0,-1 -11,0 0,-1 -12,0 0,-1 -11,0 0,-1 -13,0 0,-1 -15,0 0,-1 -14,0 0,-1 -17,0 0,-1 -18,0 0,-1 -20,0 0,-1 -22,0 0,-1 -26,0 0,-1 -30,0 0,-1 -42,0 0,-1"
               inkscape:connector-curvature="0"
               id="path34"
               style="fill:url(#linearGradient28);fill-opacity:1;fill-rule:nonzero;stroke:none" /></g></g></g><g
         id="g36"><g
           clip-path="url(#clipPath40)"
           id="g38"><g
             clip-path="url(#clipPath46)"
             id="g44"><path
               d="m 683,5 0,1 -44,0 0,1 -32,0 0,1 -26,0 0,1 -24,0 0,1 -19,0 0,1 -20,0 0,1 -15,0 0,1 -16,0 0,1 -13,0 0,1 -13,0 0,1 -13,0 0,1 -10,0 0,1 -11,0 0,1 -10,0 0,1 -9,0 0,1 -9,0 0,1 -8,0 0,1 -7,0 0,1 -7,0 0,1 -7,0 0,1 -6,0 0,1 -6,0 0,1 -5,0 0,1 -6,0 0,1 -4,0 0,1 -4,0 0,1 -5,0 0,1 -3,0 0,1 -3,0 0,1 -3,0 0,1 -3,0 0,1 -2,0 0,1 -2,0 0,1 -2,0 0,1 -2,0 0,1 -1,0 0,2 -1,0 0,1 -1,0 0,3 1,0 0,1 1,0 0,2 1,0 0,1 2,0 0,1 2,0 0,1 1,0 0,1 3,0 0,1 3,0 0,1 3,0 0,1 3,0 0,1 3,0 0,1 4,0 0,1 5,0 0,1 4,0 0,1 5,0 0,1 6,0 0,1 5,0 0,1 6,0 0,1 7,0 0,1 7,0 0,1 7,0 0,1 9,0 0,1 8,0 0,1 9,0 0,1 10,0 0,1 11,0 0,1 10,0 0,1 13,0 0,1 12,0 0,1 14,0 0,1 15,0 0,1 16,0 0,1 19,0 0,1 19,0 0,1 23,0 0,1 26,0 0,1 32,0 0,1 43,0 0,1 204,0 0,-1 43,0 0,-1 32,0 0,-1 26,0 0,-1 23,0 0,-1 19,0 0,-1 19,0 0,-1 16,0 0,-1 15,0 0,-1 14,0 0,-1 12,0 0,-1 13,0 0,-1 10,0 0,-1 11,0 0,-1 10,0 0,-1 9,0 0,-1 8,0 0,-1 9,0 0,-1 7,0 0,-1 7,0 0,-1 7,0 0,-1 6,0 0,-1 5,0 0,-1 6,0 0,-1 5,0 0,-1 4,0 0,-1 5,0 0,-1 4,0 0,-1 3,0 0,-1 3,0 0,-1 3,0 0,-1 3,0 0,-1 3,0 0,-1 1,0 0,-1 2,0 0,-1 2,0 0,-1 1,0 0,-2 1,0 0,-1 1,0 0,-3 -1,0 0,-1 -1,0 0,-2 -1,0 0,-1 -2,0 0,-1 -2,0 0,-1 -2,0 0,-1 -2,0 0,-1 -3,0 0,-1 -3,0 0,-1 -3,0 0,-1 -3,0 0,-1 -5,0 0,-1 -4,0 0,-1 -4,0 0,-1 -6,0 0,-1 -5,0 0,-1 -6,0 0,-1 -6,0 0,-1 -7,0 0,-1 -7,0 0,-1 -7,0 0,-1 -8,0 0,-1 -9,0 0,-1 -9,0 0,-1 -10,0 0,-1 -11,0 0,-1 -10,0 0,-1 -13,0 0,-1 -13,0 0,-1 -13,0 0,-1 -16,0 0,-1 -15,0 0,-1 -20,0 0,-1 -19,0 0,-1 -24,0 0,-1 -26,0 0,-1 -32,0 0,-1 -44,0 0,-1"
               inkscape:connector-curvature="0"
               id="path56"
               style="fill:url(#linearGradient50);fill-opacity:1;fill-rule:nonzero;stroke:none" /></g></g></g><g
         id="g58"><g
           clip-path="url(#clipPath62)"
           id="g60"><g
             clip-path="url(#clipPath68)"
             id="g66"><path
               d="m 764,9 0,1 -91,0 0,1 -42,0 0,1 -33,0 0,1 -26,0 0,1 -22,0 0,1 -21,0 0,1 -17,0 0,1 -16,0 0,1 -14,0 0,1 -14,0 0,1 -13,0 0,1 -11,0 0,1 -11,0 0,1 -10,0 0,1 -9,0 0,1 -9,0 0,1 -8,0 0,1 -7,0 0,1 -7,0 0,1 -7,0 0,1 -6,0 0,1 -5,0 0,1 -5,0 0,1 -4,0 0,1 -5,0 0,1 -3,0 0,1 -4,0 0,1 -3,0 0,1 -2,0 0,1 -2,0 0,1 -2,0 0,1 -2,0 0,2 -1,0 0,1 -1,0 0,3 1,0 0,2 1,0 0,1 2,0 0,1 2,0 0,1 2,0 0,1 2,0 0,1 3,0 0,1 3,0 0,1 4,0 0,1 4,0 0,1 5,0 0,1 4,0 0,1 6,0 0,1 6,0 0,1 6,0 0,1 7,0 0,1 8,0 0,1 7,0 0,1 9,0 0,1 9,0 0,1 10,0 0,1 11,0 0,1 11,0 0,1 13,0 0,1 13,0 0,1 14,0 0,1 17,0 0,1 17,0 0,1 21,0 0,1 21,0 0,1 26,0 0,1 32,0 0,1 41,0 0,1 75,0 0,1 74,0 0,-1 75,0 0,-1 41,0 0,-1 32,0 0,-1 26,0 0,-1 21,0 0,-1 21,0 0,-1 17,0 0,-1 17,0 0,-1 14,0 0,-1 13,0 0,-1 13,0 0,-1 11,0 0,-1 11,0 0,-1 10,0 0,-1 9,0 0,-1 9,0 0,-1 7,0 0,-1 8,0 0,-1 7,0 0,-1 6,0 0,-1 6,0 0,-1 6,0 0,-1 4,0 0,-1 5,0 0,-1 4,0 0,-1 4,0 0,-1 3,0 0,-1 3,0 0,-1 2,0 0,-1 2,0 0,-1 2,0 0,-1 2,0 0,-1 1,0 0,-2 1,0 0,-3 -1,0 0,-1 -1,0 0,-2 -2,0 0,-1 -2,0 0,-1 -2,0 0,-1 -2,0 0,-1 -3,0 0,-1 -4,0 0,-1 -3,0 0,-1 -5,0 0,-1 -4,0 0,-1 -5,0 0,-1 -5,0 0,-1 -6,0 0,-1 -7,0 0,-1 -7,0 0,-1 -7,0 0,-1 -8,0 0,-1 -9,0 0,-1 -9,0 0,-1 -10,0 0,-1 -11,0 0,-1 -11,0 0,-1 -13,0 0,-1 -13,0 0,-1 -15,0 0,-1 -16,0 0,-1 -17,0 0,-1 -21,0 0,-1 -22,0 0,-1 -26,0 0,-1 -33,0 0,-1 -42,0 0,-1 -91,0 0,-1"
               inkscape:connector-curvature="0"
               id="path78"
               style="fill:url(#linearGradient72);fill-opacity:1;fill-rule:nonzero;stroke:none" /></g></g></g><g
         id="g80"><g
           clip-path="url(#clipPath84)"
           id="g82"><g
             clip-path="url(#clipPath90)"
             id="g88"><path
               d="m 706,14 0,1 -57,0 0,1 -37,0 0,1 -29,0 0,1 -25,0 0,1 -22,0 0,1 -18,0 0,1 -17,0 0,1 -15,0 0,1 -15,0 0,1 -12,0 0,1 -12,0 0,1 -11,0 0,1 -10,0 0,1 -9,0 0,1 -8,0 0,1 -8,0 0,1 -7,0 0,1 -7,0 0,1 -5,0 0,1 -5,0 0,1 -5,0 0,1 -4,0 0,1 -4,0 0,1 -4,0 0,1 -2,0 0,1 -2,0 0,1 -2,0 0,1 -2,0 0,2 -1,0 0,3 1,0 0,2 1,0 0,1 3,0 0,1 2,0 0,1 2,0 0,1 4,0 0,1 3,0 0,1 4,0 0,1 5,0 0,1 5,0 0,1 6,0 0,1 7,0 0,1 6,0 0,1 8,0 0,1 8,0 0,1 9,0 0,1 10,0 0,1 11,0 0,1 12,0 0,1 12,0 0,1 14,0 0,1 15,0 0,1 17,0 0,1 19,0 0,1 21,0 0,1 24,0 0,1 29,0 0,1 36,0 0,1 52,0 0,1 168,0 0,-1 52,0 0,-1 36,0 0,-1 29,0 0,-1 24,0 0,-1 21,0 0,-1 19,0 0,-1 17,0 0,-1 15,0 0,-1 14,0 0,-1 12,0 0,-1 12,0 0,-1 11,0 0,-1 10,0 0,-1 9,0 0,-1 8,0 0,-1 8,0 0,-1 6,0 0,-1 7,0 0,-1 6,0 0,-1 5,0 0,-1 5,0 0,-1 4,0 0,-1 3,0 0,-1 4,0 0,-1 2,0 0,-1 2,0 0,-1 3,0 0,-1 1,0 0,-2 1,0 0,-3 -1,0 0,-2 -2,0 0,-1 -2,0 0,-1 -2,0 0,-1 -2,0 0,-1 -4,0 0,-1 -3,0 0,-1 -5,0 0,-1 -5,0 0,-1 -5,0 0,-1 -5,0 0,-1 -7,0 0,-1 -7,0 0,-1 -8,0 0,-1 -8,0 0,-1 -9,0 0,-1 -10,0 0,-1 -11,0 0,-1 -12,0 0,-1 -12,0 0,-1 -15,0 0,-1 -15,0 0,-1 -17,0 0,-1 -18,0 0,-1 -22,0 0,-1 -25,0 0,-1 -29,0 0,-1 -37,0 0,-1 -57,0 0,-1"
               inkscape:connector-curvature="0"
               id="path100"
               style="fill:url(#linearGradient94);fill-opacity:1;fill-rule:nonzero;stroke:none" /></g></g></g><g
         id="g102"><g
           clip-path="url(#clipPath106)"
           id="g104"><g
             clip-path="url(#clipPath112)"
             id="g110"><path
               d="m 730,18 0,1 -72,0 0,1 -41,0 0,1 -32,0 0,1 -25,0 0,1 -22,0 0,1 -20,0 0,1 -17,0 0,1 -16,0 0,1 -14,0 0,1 -13,0 0,1 -11,0 0,1 -11,0 0,1 -9,0 0,1 -9,0 0,1 -7,0 0,1 -7,0 0,1 -6,0 0,1 -6,0 0,1 -5,0 0,1 -4,0 0,1 -4,0 0,1 -2,0 0,1 -3,0 0,1 -2,0 0,2 -1,0 0,1 -1,0 0,1 1,0 0,2 1,0 0,1 2,0 0,1 3,0 0,1 2,0 0,1 4,0 0,1 4,0 0,1 5,0 0,1 5,0 0,1 6,0 0,1 7,0 0,1 8,0 0,1 8,0 0,1 10,0 0,1 10,0 0,1 11,0 0,1 13,0 0,1 14,0 0,1 15,0 0,1 17,0 0,1 20,0 0,1 22,0 0,1 25,0 0,1 31,0 0,1 40,0 0,1 67,0 0,1 120,0 0,-1 67,0 0,-1 40,0 0,-1 31,0 0,-1 25,0 0,-1 22,0 0,-1 20,0 0,-1 17,0 0,-1 15,0 0,-1 14,0 0,-1 13,0 0,-1 11,0 0,-1 10,0 0,-1 10,0 0,-1 8,0 0,-1 8,0 0,-1 7,0 0,-1 6,0 0,-1 5,0 0,-1 5,0 0,-1 4,0 0,-1 4,0 0,-1 2,0 0,-1 3,0 0,-1 2,0 0,-1 1,0 0,-2 1,0 0,-1 -1,0 0,-1 -1,0 0,-2 -2,0 0,-1 -3,0 0,-1 -2,0 0,-1 -4,0 0,-1 -4,0 0,-1 -5,0 0,-1 -6,0 0,-1 -6,0 0,-1 -7,0 0,-1 -7,0 0,-1 -9,0 0,-1 -9,0 0,-1 -11,0 0,-1 -11,0 0,-1 -13,0 0,-1 -14,0 0,-1 -16,0 0,-1 -17,0 0,-1 -20,0 0,-1 -22,0 0,-1 -25,0 0,-1 -32,0 0,-1 -41,0 0,-1 -72,0 0,-1"
               inkscape:connector-curvature="0"
               id="path122"
               style="fill:url(#linearGradient116);fill-opacity:1;fill-rule:nonzero;stroke:none" /></g></g></g><g
         id="g124"><g
           clip-path="url(#clipPath128)"
           id="g126"><path
             d="m 920.344,359.188 c 24.48,30.124 68.738,34.683 98.836,10.203 30.02,-24.403 34.66,-68.473 10.43,-98.575 l 0.04,-0.015 C 1007.8,243.535 983.668,218.535 957.645,195.91 931.887,173.531 904.309,153.609 875.32,136.27 726.254,47.1914 541.23,27.6914 372.441,92.0391 336.086,105.871 317.848,146.559 331.695,182.91 c 13.832,36.336 54.539,54.578 90.86,40.75 54.359,-20.719 110.914,-29.988 166.617,-28.64 -47.578,39.05 -61.32,107.91 -29.543,162.933 35.355,61.274 113.711,82.242 174.973,46.887 54.789,-31.633 77.351,-97.656 56.191,-155.074 4.145,2.308 8.293,4.664 12.383,7.125 21.914,13.082 42.824,28.226 62.504,45.316 19.382,16.855 37.605,35.789 54.382,56.703 l 0.274,0.278 0.008,0"
             inkscape:connector-curvature="0"
             id="path132"
             style="fill:#85c733;fill-opacity:1;fill-rule:nonzero;stroke:none" /><path
             d="m 235.414,904.785 c -24.461,-30.097 -68.742,-34.68 -98.848,-10.183 -29.906,24.312 -34.613,68.152 -10.664,98.257 l -0.078,0.047 c 21.848,27.414 46.09,52.654 72.328,75.544 26.11,22.77 53.926,42.96 83.043,60.37 149.903,89.75 336.379,108.93 506.133,43.12 36.203,-13.99 54.192,-54.68 40.215,-90.87 -14.004,-36.2 -54.684,-54.18 -90.863,-40.19 -55.086,21.35 -112.469,30.87 -169.008,29.45 47.609,-39.03 61.39,-107.92 29.594,-162.986 -35.352,-61.254 -113.711,-82.231 -174.957,-46.887 -54.793,31.637 -77.364,97.703 -56.18,155.113 -4.317,-2.37 -8.567,-4.83 -12.801,-7.35 -22.101,-13.24 -43.094,-28.435 -62.652,-45.493 -19.461,-16.973 -37.77,-36.122 -54.699,-57.379 l -0.547,-0.539 -0.016,-0.024"
             inkscape:connector-curvature="0"
             id="path134"
             style="fill:#d43a38;fill-opacity:1;fill-rule:nonzero;stroke:none" /><path
             d="m 308.242,288.137 c 30.11,-24.477 34.664,-68.727 10.176,-98.836 -24.238,-29.821 -67.875,-34.59 -97.957,-10.903 l -0.086,-0.089 c -28.09,22.121 -53.605,46.371 -76.437,72.312 -22.864,26.02 -43.208,53.899 -60.8911,83.227 -90.60159,150.34 -110.0391,337.89 -43.5977,508.511 14.0039,36.192 54.6875,54.188 90.8708,40.2 36.2,-13.989 54.2,-54.672 40.2,-90.875 -21.528,-55.278 -31.125,-112.93 -29.692,-169.719 39.067,47.551 107.899,61.273 162.942,29.5 61.242,-35.352 82.226,-113.692 46.867,-174.938 -31.594,-54.75 -97.524,-77.339 -154.891,-56.293 2.566,-4.589 5.192,-9.172 7.906,-13.691 13.317,-22.063 28.672,-43.113 46.036,-62.852 17.406,-19.8 36.679,-38.132 57.699,-54.707 l 0.832,-0.82 0.023,-0.027"
             inkscape:connector-curvature="0"
             id="path136"
             style="fill:#1f91d5;fill-opacity:1;fill-rule:nonzero;stroke:none" /><path
             d="m 853.145,973.656 c -29.977,24.621 -34.278,68.884 -9.637,98.854 24.465,29.75 68.324,34.21 98.262,10.11 l 0.062,0.05 c 27.68,-22.35 52.879,-46.89 75.528,-73.24 22.28,-25.95 42.22,-53.965 59.65,-83.649 88.78,-151.07 106.29,-338.383 38.46,-507.949 -14.45,-36.039 -55.38,-53.535 -91.42,-39.102 -36.027,14.454 -53.558,55.391 -39.109,91.43 22.549,56.324 32.639,115.235 31.189,173.281 -39.036,-47.625 -107.923,-61.406 -162.985,-29.613 -61.266,35.379 -82.247,113.727 -46.891,174.965 31.66,54.82 97.738,77.391 155.176,56.172 -1.817,3.273 -3.664,6.535 -5.567,9.769 -12.898,21.926 -28.031,43.118 -45.359,63.278 -16.984,19.777 -35.942,38.234 -56.789,55.07 l -0.547,0.555 -0.023,0.019"
             inkscape:connector-curvature="0"
             id="path138"
             style="fill:#e3812a;fill-opacity:1;fill-rule:nonzero;stroke:none" /><g
             transform="scale(10,10)"
             id="g140"><text
               transform="matrix(1,0,0,-1,135.582,26.9148)"
               id="text142"><tspan
                 x="0 42.318951 58.720676 84.637901 117.62916 147.1147 184.62639 209.22897 238.65919 271.65045 309.33685 346.89804"
                 y="0"
                 id="tspan144"
                 style="font-size:62.60200119px;font-variant:normal;font-weight:normal;writing-mode:lr-tb;fill:#1f91d5;fill-opacity:1;fill-rule:nonzero;stroke:none;font-family:HandelGothicYU;-inkscape-font-specification:HandelGothicYU">Elternfreund</tspan></text>
</g></g></g></g></g></svg>